<?xml version="1.0" encoding="UTF-8" standalone="no"?>
<!-- Created with Inkscape (http://www.inkscape.org/) -->

<svg
   xmlns:ns0="http://www.iki.fi/pav/software/textext/"
   xmlns:dc="http://purl.org/dc/elements/1.1/"
   xmlns:cc="http://creativecommons.org/ns#"
   xmlns:rdf="http://www.w3.org/1999/02/22-rdf-syntax-ns#"
   xmlns:svg="http://www.w3.org/2000/svg"
   xmlns="http://www.w3.org/2000/svg"
   xmlns:sodipodi="http://sodipodi.sourceforge.net/DTD/sodipodi-0.dtd"
   xmlns:inkscape="http://www.inkscape.org/namespaces/inkscape"
   width="64px"
   height="64px"
   id="svg3821"
   version="1.1"
   inkscape:version="0.48.4 r9939"
   sodipodi:docname="New document 5"
   inkscape:export-filename="C:\Users\Michael\Documents\GitHub\gazebodude.github.com\favicon.png"
   inkscape:export-xdpi="67.5"
   inkscape:export-ydpi="67.5">
  <sodipodi:namedview
     id="base"
     pagecolor="#ffffff"
     bordercolor="#666666"
     borderopacity="1.0"
     inkscape:pageopacity="0.0"
     inkscape:pageshadow="2"
     inkscape:zoom="2.8284271"
     inkscape:cx="46.234538"
     inkscape:cy="30.755912"
     inkscape:current-layer="layer1"
     showgrid="true"
     inkscape:document-units="px"
     inkscape:grid-bbox="true"
     inkscape:window-width="1366"
     inkscape:window-height="706"
     inkscape:window-x="-8"
     inkscape:window-y="-8"
     inkscape:window-maximized="1" />
  <defs
     id="defs3823" />
  <metadata
     id="metadata3826">
    <rdf:RDF>
      <cc:Work
         rdf:about="">
        <dc:format>image/svg+xml</dc:format>
        <dc:type
           rdf:resource="http://purl.org/dc/dcmitype/StillImage" />
        <dc:title></dc:title>
      </cc:Work>
    </rdf:RDF>
  </metadata>
  <g
     inkscape:groupmode="layer"
     inkscape:label="Layer 1"
     id="layer1">
    <g
       id="g4391"
       transform="translate(0,-1.8345291)">
      <g
         id="g4365"
         transform="translate(0,-10.909091)">
        <rect
           ry="9.5964489"
           y="30"
           x="8"
           height="29.272728"
           width="48"
           id="rect3829"
           style="fill:#000000;fill-opacity:1;stroke:none" />
        <rect
           ry="3.8147376"
           y="24.09091"
           x="22.208426"
           height="11.636365"
           width="19.583149"
           id="rect3829-9"
           style="fill:#000000;fill-opacity:1;stroke:none" />
        <path
           transform="matrix(0.89256199,0,0,0.89256199,7.7385424,30.2934)"
           d="m 38.181818,16.272728 c 0,6.075132 -4.924868,11 -11,11 -6.075132,0 -11,-4.924868 -11,-11 0,-6.075132 4.924868,-11 11,-11 6.075132,0 11,4.924868 11,11 z"
           sodipodi:ry="11"
           sodipodi:rx="11"
           sodipodi:cy="16.272728"
           sodipodi:cx="27.181818"
           id="path4361"
           style="fill:#ffffff;fill-opacity:1;stroke:none"
           sodipodi:type="arc" />
      </g>
      <g
         style="font-style:normal;font-variant:normal;font-weight:normal;font-stretch:normal;letter-spacing:normal;word-spacing:normal;text-anchor:start;fill:#ff0000;fill-opacity:1;stroke:#ff0000;stroke-linecap:butt;stroke-linejoin:miter;stroke-miterlimit:10.43299961;stroke-opacity:1;stroke-dasharray:none;stroke-dashoffset:0"
         id="content"
         transform="matrix(5.5701134,0,0,-5.5701134,-1230.9954,3986.4984)"
         xml:space="preserve"
         stroke-miterlimit="10.433"
         font-style="normal"
         font-variant="normal"
         font-weight="normal"
         font-stretch="normal"
         font-size-adjust="none"
         letter-spacing="normal"
         word-spacing="normal"
         ns0:text="$\\oint$"
         ns0:preamble="C:\\Users\\Michael\\Dropbox\\PhD\\Writings\\Confirmation of Candidature materials\\preamble.tex">
<path
   style="fill:#005757;fill-opacity:1;stroke:#ff0000;stroke-width:0;stroke-opacity:1"
   inkscape:connector-curvature="0"
   d="m 227.01,707.77 0.1,0.01 0.1,0.02 0.09,0.03 0.09,0.03 0.09,0.03 0.09,0.04 0.08,0.04 0.08,0.04 0.08,0.04 0.07,0.05 0.07,0.05 0.06,0.06 0.07,0.05 0.06,0.06 0.06,0.06 0.05,0.07 0.05,0.06 0.05,0.07 0.04,0.06 0.04,0.07 0.04,0.08 0.04,0.07 0.03,0.07 0.03,0.08 0.02,0.07 0.02,0.08 0.02,0.07 0.02,0.08 0.01,0.08 0.01,0.07 0,0.08 0.01,0.08 -0.4,0.01 c 0,-0.72 -0.52,-1.32 -1.21,-1.45 l 0.28,2.8 c 0.52,-0.21 0.93,-0.73 0.93,-1.35 l 0.4,-0.01 c 0,0.73 -0.45,1.49 -1.3,1.77 0.07,1.04 0.11,1.41 0.12,1.6 0.1,1.1 0.25,1.94 0.92,1.94 0.1,0 0.4,-0.02 0.62,-0.21 -0.28,-0.04 -0.36,-0.27 -0.36,-0.4 0,-0.29 0.22,-0.42 0.4,-0.42 0.2,0 0.42,0.13 0.42,0.43 0,0.47 -0.5,0.82 -1.09,0.82 -0.8,0 -1.18,-0.68 -1.38,-1.25 -0.13,-0.39 -0.2,-0.7 -0.41,-2.42 -1.08,-0.16 -1.66,-1.04 -1.66,-1.85 h 0.4 c 0,0.67 0.49,1.29 1.2,1.43 l -0.29,-2.8 c -0.46,0.2 -0.91,0.68 -0.91,1.37 h -0.4 c 0,-0.74 0.45,-1.49 1.29,-1.77 -0.07,-1.03 -0.1,-1.35 -0.12,-1.55 -0.1,-1.08 -0.28,-2 -1.04,-2 -0.13,0 -0.43,0.03 -0.64,0.21 0.29,0.04 0.37,0.27 0.37,0.41 0,0.29 -0.22,0.42 -0.41,0.42 -0.2,0 -0.42,-0.13 -0.42,-0.43 0,-0.48 0.5,-0.83 1.1,-0.83 0.77,0 1.22,0.59 1.47,1.21 0.22,0.55 0.29,1.11 0.45,2.47 z"
   id="path4380"
   inkscape:export-xdpi="67.5"
   inkscape:export-ydpi="67.5" />
</g>    </g>
  </g>
</svg>
